<?xml version="1.0" standalone="no"?>
<!DOCTYPE svg PUBLIC "-//W3C//DTD SVG 1.1//EN" "http://www.w3.org/Graphics/SVG/1.1/DTD/svg11.dtd">
<svg xmlns="http://www.w3.org/2000/svg">
<metadata>Generated by Fontastic.me</metadata>
<defs>
<font id="humankind" horiz-adv-x="512">
<font-face font-family="humankind" units-per-em="512" ascent="480" descent="-32"/>
<missing-glyph horiz-adv-x="512" />

<glyph unicode="&#97;" d="M389 311l0 40c0 77-62 139-139 139-76 0-138-62-138-139l0-40-19 0 0-276 315 0 0 276z m-243 40c0 58 47 104 104 104 58 0 104-46 104-104l0-40-208 0z m115-180l0-41-21 0 0 41c-10 4-17 14-17 25 0 16 12 28 27 28 16 0 28-12 28-28 0-11-7-21-17-25z"/>
<glyph unicode="&#98;" d="M386 384l0 106-255 0 0-106-72 0 0-349 399 0 0 349z m-211 63l168 0 0-63-168 0z m97-241l0-51-26 0 0 51c-13 5-22 18-22 33 0 19 15 35 35 35 19 0 35-16 35-35 0-15-9-28-22-33z"/>
<glyph unicode="&#99;" d="M253 55c-64 68-125 130-183 196-37 41-40 88-14 130 25 41 72 61 120 49 38-9 63-35 79-75 6 10 10 18 15 26 35 55 107 69 158 31 51-39 61-107 17-157-59-67-124-129-192-200z"/>
<glyph unicode="&#100;" d="M270 16l-243 243 0 218 225-9 233-236z m-200 261l200-200 154 155-191 193-163 6z m124 73c0-19-15-34-34-34-19 0-34 15-34 34 0 19 15 34 34 34 19 0 34-15 34-34z"/>
<glyph unicode="&#101;" d="M306 490l-287-258 187-210 260 0 27 260z m-81-218c-16 0-30 13-30 30 0 17 14 31 30 31 17 0 31-14 31-31 0-17-14-30-31-30z"/>
<glyph unicode="&#102;" d="M401 256c0-80-65-145-145-145-80 0-145 65-145 145 0 80 65 145 145 145 80 0 145-65 145-145z m-145-234c-129 0-234 105-234 234 0 129 105 234 234 234 129 0 234-105 234-234 0-129-105-234-234-234z m0 434c-110 0-200-90-200-200 0-110 90-200 200-200 110 0 200 90 200 200 0 110-90 200-200 200z"/>
<glyph unicode="&#103;" d="M261 480c-129 0-234-105-234-234 0-129 105-233 234-233 128 0 233 104 233 233 0 129-105 234-233 234z m0-433c-110 0-199 90-199 199 0 110 89 199 199 199 109 0 198-89 198-199 0-109-89-199-198-199z m-36 286l104-87-104-87z"/>
<glyph unicode="&#104;" d="M256 497c-133 0-241-108-241-241 0-133 108-241 241-241 133 0 241 108 241 241 0 133-108 241-241 241z m-37-331l0 180 107-90z"/>
<glyph unicode="&#105;" d="M497 461l-482 0 0-350 234 0-69-60 152 0-69 60 234 0 0 350z m-46-304l-390 0 0 259 390 0z"/>
<glyph unicode="&#106;" d="M298 315l-26-26 33-34-121-121-121 121 121 121 32-32 26 26-58 59-172-173 172-173 173 173z m30 114l-173-173 62-62 25 26-35 35 121 121 121-121-121-121-30 30-25-25 55-56 172 173z"/>
<glyph unicode="&#107;" d="M475 167c-30 16-62 31-92 46-10 5-17 3-23-5-12-15-24-31-35-46-5-6-9-7-17-5-47 17-85 45-118 82-15 17-28 35-41 54-8 11-6 12 3 22 10 13 20 27 29 41 2 4 2 11 1 15-12 29-25 58-36 88-6 14-14 23-31 20-1 0-2 0-3 0-22 6-38-2-53-20-21-26-35-54-33-88 1-26 8-50 20-72 49-91 117-163 208-213 35-20 73-33 114-34 12 1 23 2 35 5 26 5 47 19 66 38 15 15 14 34 17 52 1 11-2 16-11 20z"/>
<glyph unicode="&#108;" d="M474 207c0 12-2 23-7 34-27-31-55-59-95-73 2-3 4-4 6-6 9-12 10-28-1-40-4-5-10-10-16-14-14-9-29-17-45-18-15-1-25 6-27 21-1 3-1 7-1 11-2 67-3 134-4 201-1 4 0 9 0 15 50 0 101 0 151 0 0 10 0 20 0 30-51 0-101 0-153 0 0 8 0 15 0 23 0 4 1 6 5 8 30 16 38 57 16 83-14 16-32 21-53 19-28-3-50-29-48-57 1-21 12-35 29-45 2-1 4-3 4-5 1-8 0-17 0-26-52 0-103 0-153 0 0-11 0-20 0-30 51 0 101 0 152 0 0-2 0-4 0-5-1-32-1-64-2-96-1-40-2-80-3-120 0-20-12-30-31-27-21 4-40 13-55 28-15 15-14 33 0 47 0 1 1 2 2 3-40 14-68 42-94 72-1-1-2-2-2-4-6-14-7-28-6-43 3-28 16-52 30-77 1 1 2 1 2 1 10 6 16 5 22-4 25-36 58-61 98-76 22-8 46-11 63-27 5 3 9 7 14 9 4 2 9 4 15 6 9 3 18 6 27 9 44 15 80 41 107 80 5 7 11 8 19 4 1 0 3-1 4-2 5 9 10 18 14 27 10 20 17 41 16 64z m-215 220c-12 0-20 9-20 20 0 11 8 20 20 20 11 0 20-9 20-20 0-11-9-20-20-20z"/>
<glyph unicode="&#109;" d="M366 335c0-61-49-110-110-110-61 0-110 49-110 110 0 61 49 110 110 110 61 0 110-49 110-110z m57 2c1 0 1 2 1 2-4 6-8 11-12 16-1 1-1 2-1 4 1 1 2 3 2 5 2 4 3 9 5 13 0 2 0 3-2 5-4 3-9 7-14 11-1 1-2 2-2 3 1 7 1 13 2 20 0 3 0 3-3 4-6 3-11 5-17 8 0 0-1 1-1 2-1 2-1 4-2 6 0 5-1 9-2 14-1 2-1 2-2 3-7 1-13 2-19 3-1 0-2 1-3 2-1 2-2 4-3 6-2 5-4 9-6 13-1 1-2 1-3 1-1 0-3 0-5 0-5 0-9-1-14-1-1 0-2 0-3 2-4 5-9 10-13 15-1 1-2 2-4 1-4-2-9-3-14-5-2 0-5-2-8 0-5 4-10 8-15 12-2 0-3 1-4 0-5-3-10-6-14-10-3-2-5-1-8 0-6 2-11 4-17 7-1 0-2-1-3-1-4-5-8-9-12-14-2-1-3-2-5-1-7 0-13 1-19 2-2 0-3 0-3-2-3-5-6-11-9-16-1-1-2-2-3-2-7-1-13-2-19-3-3 0-4 0-4-3-2-5-3-10-4-15-1-2-1-4-4-5-6-3-11-5-17-7-3-1-3-2-3-4 0-6 0-12 0-18 0-2 0-3-2-4-4-3-9-7-14-10-3-3-3-3-2-7 1-5 2-10 4-16 0-1 0-2-1-4-4-5-8-10-13-15-1-1-1-2 0-4 3-6 6-11 9-16 0-1 1-2 0-3-2-6-5-13-8-19-1-1-1-3 0-4 4-4 9-8 13-13 0-1 1-2 1-3 0-2-1-4-1-6-1-5-2-10-2-15-1-1 0-2 1-3 5-3 10-6 16-10 1-1 2-2 2-4 0-6 1-13 1-19 0-1 1-2 2-3 6-1 11-3 17-5 2-1 3-1 4-3 1-2 1-5 2-7 1-4 3-8 4-12 1-2 2-2 3-2 2 0 4-1 6-1 3 0 3 0 3-3 0-31 0-62 0-92 0 0 0 0 0 0 0-26 0-51 0-77 0-5 0-11 0-16 0-1 1-2 1-2 0 0 1 0 1 0 6 5 12 10 18 15 9 7 17 14 25 20 7 7 15 13 23 19 8 6 16 13 24 20 1 1 2 0 3-1 2-2 5-4 8-7 7-6 13-11 20-17 6-5 13-11 19-16 8-7 16-14 25-21 5-4 9-8 14-12 0-1 1-1 2-1 0 0 0 1 0 1 0 2 0 3 0 4 0 40 0 80 0 119 0 19 0 38 0 57 0 2 0 3 3 3 0 0 1 0 2 1 0 1 1 3 1 4 2 5 4 10 6 14 0 1 1 2 2 2 6 2 12 3 18 5 4 1 4 1 5 6 0 0 0 0 0 1 1 5 1 10 2 15 0 1 1 2 2 3 5 3 11 6 17 9 2 1 2 3 2 5-1 3-1 7-1 10-1 2-1 4-1 7-1 2 0 3 1 4 4 4 9 8 13 12 3 3 3 3 1 8 0 0 0 0 0 1-2 4-4 9-6 14 0 1 0 2 0 3 4 6 8 12 11 18z m-171-139c-37 1-68 14-94 41-28 28-41 63-39 102 3 72 62 131 137 131 78 0 139-64 138-137 0-77-64-140-142-137z m73-137c0-2 0-3 0-4 0-1 0-2-1-2 0 0-1 0-2 0-5 4-9 8-14 12-11 9-22 18-33 27-6 6-12 11-18 16-2 1-3 1-4 0-11-9-21-17-32-26-6-5-13-10-19-15-5-4-11-9-17-13 0-1-1-1-2-1 0 1 0 1 0 2 0 26 0 51 0 77 0 16 0 33 0 49 0 1 0 2 0 2 1 0 2-1 2-1 2-3 2-3 5-2 6 1 12 2 18 3 1 0 2 0 3-1 5-5 10-9 15-14 1-1 2-1 4 0 6 3 12 5 17 8 1 0 2 0 3 0 5-3 10-6 15-8 1-1 2-2 3-2 1 0 3 0 4 0 4 4 9 8 14 12 1 1 2 2 4 1 6-1 12-3 17-4 1 0 1 0 2-1 1 0 3 0 3 1 4 5 7 10 10 14 1 1 2 1 2 1 0 0 1-1 1-2 0-22 0-44 0-67 0 0 0 0 0 0 0-21 0-42 0-62z"/>
<glyph unicode="&#110;" d="M419 326c0 1 0 2 0 3-4 5-7 10-11 15-1 1-1 2-1 4 0 1 1 3 2 4 1 5 2 9 4 13 0 2 0 3-1 5-5 3-9 7-14 11-1 1-2 1-2 3 1 6 1 13 1 19 1 3 0 3-2 4-6 3-11 5-16 8-1 0-2 1-2 2 0 1-1 3-1 5-1 5-2 10-3 15 0 1-1 2-2 2-6 1-12 2-18 3-1 0-2 1-3 2-1 2-2 4-3 6-2 4-4 8-6 12 0 1-1 2-2 2-2 0-4 0-6 0-4-1-8-1-13-1-1-1-2 0-3 1-4 5-8 10-12 15-1 1-3 1-4 1-5-2-9-3-14-5-2 0-5-2-7 0-5 4-11 8-16 11-1 1-2 1-3 0-5-3-10-5-14-9-3-2-5-1-8 0-5 2-11 4-16 6-1 1-2 0-3 0-4-5-8-9-12-13-1-2-3-2-5-2-6 1-12 1-18 2-2 0-3 0-3-1-3-6-6-11-9-16-1-1-2-2-3-2-6-1-12-2-18-3-3 0-4 0-4-3-2-5-3-10-4-15 0-2-1-4-3-5-6-2-12-4-17-6-3-1-3-2-3-4 0-6 0-12 0-17 0-2 0-3-2-4-4-4-9-7-14-10-3-3-3-3-2-7 1-5 3-10 4-15 0-2 0-3-1-4-4-5-8-10-12-15-1-1-1-2 0-4 3-5 6-11 8-16 1-1 1-2 1-3-3-6-6-12-9-18 0-1 0-2 1-4 4-4 8-8 12-12 1-1 1-2 1-3 0-2 0-4-1-6 0-5-1-10-2-15 0 0 0-2 1-2 5-4 10-7 16-10 1-1 2-2 2-4 0-6 0-13 1-19 0-1 0-2 2-2 5-2 11-4 16-6 2 0 4-1 4-2 1-3 1-5 2-7 2-4 3-8 4-12 1-2 2-2 3-2 2 0 4 0 6 0 3 0 3-1 3-4 0-30 0-59 0-89 0 0 0 0 0 0 0-25 0-50 0-74 0-6 0-11 0-17 0 0 0-1 1-1 0 0 1 0 1 0 6 5 12 10 17 15 8 6 16 13 24 19 8 6 15 12 22 18 8 6 16 13 24 19 1 1 2 1 3 0 2-2 5-5 8-7 6-6 13-11 19-17 6-5 12-10 18-15 8-7 17-14 25-21 4-4 9-8 14-12 0 0 1 0 1 0 0 0 1 1 1 1 0 1 0 3 0 4 0 38 0 77 0 116 0 18 0 36 0 54-1 2 0 3 2 3 1 0 2 1 2 2 1 1 1 2 2 3 1 5 3 10 5 14 0 1 1 2 2 2 6 2 12 3 17 5 4 1 5 1 5 5 0 1 0 1 0 1 1 6 1 11 2 16 0 0 1 1 2 2 5 3 11 6 16 9 2 1 3 2 3 4-1 4-1 7-2 10 0 2 0 5 0 7-1 2-1 3 1 4 4 4 8 8 12 12 3 3 3 3 2 7-1 0-1 1-1 1-2 5-4 9-5 14-1 1-1 2 0 3 3 6 7 11 11 17z m-167-135c-35 1-66 14-91 40-27 28-40 61-39 100 4 70 61 127 134 127 76 0 134-62 134-134 0-75-62-135-138-133z m71-133c0-1 0-3 0-4 0-1 0-1-1-2 0 0-1 0-2 1-4 4-9 8-14 12-10 8-21 17-31 26-6 5-13 10-19 15-1 1-2 1-3 0-10-8-21-17-31-25-6-5-12-10-18-15-6-4-11-9-17-13 0 0-1 0-2-1 0 1 0 2 0 2 0 25 0 50 0 75 0 16 0 32 0 48 0 1 0 1 0 2 1 0 2-1 2-1 2-3 2-3 5-2 6 1 12 2 17 3 1 0 3-1 3-1 5-5 10-9 15-14 1-1 2-1 4 0 5 3 11 5 17 8 0 0 1 0 2 0 5-3 10-5 14-8 2-1 3-2 4-2 1 0 2 0 3 1 5 3 9 7 14 11 1 1 2 2 4 1 6-1 11-3 17-4 0 0 1 0 1-1 2 0 3 0 4 1 3 5 6 9 9 14 1 0 2 1 2 1 0-1 1-1 1-2 0-22 0-43 0-65 0 0 0 0 0 0 0-20 0-41 0-61z m-67 378c-62 0-112-50-112-112 0-61 50-111 112-111 62 0 112 50 112 111 0 62-50 112-112 112z m0-204c-51 0-93 41-93 92 0 52 42 93 93 93 51 0 93-41 93-93 0-51-42-92-93-92z"/>
<glyph unicode="&#111;" d="M464 122l-150 96-15 15-1 0c40 16 69 56 71 102 0 1 0 39 0 40 0 63-51 113-113 113-62 0-113-50-113-113 0-1 0-40 0-41 2-46 31-85 71-101l-1 0-17-16-164-106 0-92 448 0 0 92z"/>
<glyph unicode="&#112;" d="M494 205l-64 42-7 6 0 0c17 7 30 24 30 44 0 1 0 17 0 18 0 27-21 48-48 48-27 0-49-21-49-48 0-1 0-18 0-18 1-20 13-37 31-44l-1 0-7-7-43-27-39 26-10 9-1 0c26 11 45 36 46 66 0 1 0 25 0 26 0 40-33 73-73 73-40 0-72-33-72-73 0-1 0-26 0-26 1-30 19-55 45-66l-1 0-10-10-42-27-47 30-6 6-1 0c18 7 30 24 31 44 0 1 0 17 0 18 0 27-22 48-49 48-27 0-48-21-48-48 0-1 0-18 0-18 0-20 13-37 30-44l0 0-7-7-71-45 0-40 104 0 0-45 289 0 0 45 97 0 0 40z"/>
<glyph unicode="&#113;" d="M442 184c17 0 31 12 34 29 2 16-7 32-23 37-5 1-10 2-15 2-22 0-44 0-65 0l0 15c12 0 24 0 36 0 8 0 15 0 23 0 16 1 29 14 31 30 2 17-9 32-25 36-4 1-9 1-14 1-41 1-81 1-122 1-1 1-1 2-1 2 0 14 0 28 0 42 0 12 0 25 0 37 0 0-1 0-1 0 0 1 0 1 0 2 0 36-25 65-60 73-5 1-11 2-18 3 0-4 0-7 0-9 0-14 0-27 0-40-3-39-19-59-19-59l0 0c-10-9-20-19-30-27-17-14-36-23-58-25-17-1-35-1-53-1-2 0-3 0-6 0 0-105 0-209 0-313 3 0 5 0 7 0 60 0 120 0 180 0 21 0 42 0 61 0l0 0c36 0 71 0 107 0 15 0 27 7 32 20 5 13 3 28-7 37-8 8-17 10-28 10-12 0-24 0-35 0l0 15c21 0 42 0 62 0 25 0 42 25 32 47-6 15-19 21-35 21-20 0-39 0-59 0l0 14c23 0 46 0 69 0z"/>
<glyph unicode="&#114;" d="M404 455l100-100-100-101z m-296-390l-100 100 100 100z m37 325l309 0 0-71-309 0z m-87-189l300 0 0-71-300 0z"/>
<glyph unicode="&#115;" d="M358 379l66-65-66-66z m-193-254l-65 65 65 65z m24 212l202 0 0-47-202 0z m-57-124l196 0 0-46-196 0z m360-193l-472 0 0 471 472 0z m-437 35l402 0 0 401-402 0z"/>
<glyph unicode="&#116;" d="M32 298c0 0 220 10 448 0l0-262c0 0-192-37-448 0z m215 104l18 0 0-109-18 0z m20 65l29-2-23-18 7-28-24 17-24-16 8 28-23 18 29 1 11 27z"/>
<glyph unicode="&#117;" d="M300 362l119 56-57-118 124-44-124-44 56-119-118 57-44-124-44 124-119-56 57 118-124 44 124 44-56 119 118-57 44 124z"/>
<glyph unicode="&#118;" d="M111 143c-2 0-4 0-6 0-17 0-34 0-51 0-4 0-7 2-8 5-13 26-21 53-25 82 0 5 1 10 5 13 4 3 6 6 9 10 4 3 4 3 1 6-4 4-8 8-12 12-2 2-3 4-3 8 1 7 2 14 3 21 4 19 10 38 18 56 6 13 6 13 19 13 15 0 29 0 43 0 2 0 4 0 7 1-2 2-3 3-4 5-10 9-19 19-29 28-4 4-4 5 0 9 8 8 16 16 24 24 2 2 3 3 5 4 2-1 3-3 4-4 10-9 19-19 29-28 1-2 3-3 5-5 1 3 1 5 1 7 0 16 0 33 0 49 0 5 1 8 6 10 25 12 51 21 79 24 1 0 3 0 4 0 4 1 7 0 9-3 5-4 9-9 14-14 1 1 3 2 4 3 4 4 8 8 11 12 2 2 5 3 8 2 19-1 37-5 55-11 10-4 20-9 31-13 3-2 5-4 5-8-1-17 0-33 0-49 0-2 0-4 0-7 3 0 4 2 5 3 10 9 19 19 28 28 2 1 3 3 5 4 2-1 3-2 5-4 8-8 16-16 24-24 4-4 4-5 0-9-9-9-19-19-28-28-2-2-3-3-5-5 3-1 5-1 7-1 17 0 33 0 50 0 4 0 7-1 8-5 14-26 22-54 25-83 0-5-1-9-5-12-3-3-6-6-9-9-1-1-2-3-3-4 4-5 8-9 12-13 4-3 5-7 5-12-3-29-12-57-25-83-2-4-4-5-8-5-17 0-33 0-50 0-2 0-4 0-7 0 2-3 3-4 4-5 9-9 19-19 28-28 5-5 5-5 0-11-7-8-15-16-23-23-5-4-5-4-9 0-10 10-19 19-29 29-1 1-2 2-5 4 0-3 0-5 0-7 0-17-1-33 0-50 0-4-2-7-6-9-27-13-55-21-84-24-4-1-6 0-9 3-3 4-7 7-11 11-3 3-4 3-7 0-4-4-8-8-11-12-3-2-5-3-8-2-20 2-40 6-58 13-9 3-18 8-27 11-4 2-5 5-5 9 0 16 0 33 0 49 0 2 0 4-1 7-2-2-4-3-5-5-9-9-19-18-28-28-4-4-5-4-9 0-8 8-17 17-25 25-4 4-4 5 0 9 10 10 20 19 30 29 1 1 2 2 3 3 0 1 0 1 0 2z m-70 47c3 0 4 0 6 0 36 0 71 0 107 0 4 0 7 1 9 3 12 12 24 24 35 36 1 0 2 2 3 3-2 1-4 1-6 1-36 0-72 0-108 0-3 0-6-1-8-4-12-12-24-23-35-35-1-1-2-2-3-4z m284-152c0 2 0 3 0 4 0 37 0 74 0 111 0 2 0 4-2 6-12 12-25 25-37 37-1 1-2 1-4 2 0-3 0-4 0-6 0-36 0-71 0-107 0-4 1-7 4-9 11-11 22-23 34-34 1-1 2-2 5-4z m-132 436c0-4 0-5 0-7 0-33 0-67 0-100 0-3 0-6 0-9 0-2 1-4 2-6 12-12 24-24 36-36 1 0 2-1 4-2 0 3 0 4 0 6 0 36 0 71 1 107 0 4-2 7-4 9-12 12-23 23-35 34 0 1-1 2-4 4z m89-159c2 1 3 1 4 2 12 12 24 24 36 36 2 2 3 4 3 7 0 36 0 72 0 108 0 2 0 3-1 6-2-2-3-3-4-4-12-11-23-22-34-34-3-2-4-5-4-9 0-36 0-71 0-107 0-1 0-3 0-5z m-82-35c-1 2-1 3-2 4-12 11-24 23-35 35-3 2-5 3-8 3-36 0-72 0-108 0-1 0-3 0-6-1 2-2 3-4 5-5 10-11 21-22 32-32 3-3 6-5 10-5 35 1 70 0 106 0 2 1 3 1 6 1z m117 0c2 0 4-1 5-1 36 0 72 0 108 0 4 0 6 2 8 4 12 11 23 23 34 34 2 1 2 2 4 5-3 0-5 0-6 0-35 0-71 0-106 0-4 0-7-1-11-4-11-12-22-23-33-34-1-1-2-2-3-4z m158-90c0 0 1 1 1 1-1 1-2 2-2 3-12 12-24 24-36 36-2 2-4 3-8 3-36 0-72 0-108 0-1 0-3-1-5-1 1-2 2-3 2-3 12-12 24-23 35-35 3-3 6-4 10-4 35 0 71 0 106 0 1 0 3 0 5 0z m-281-151c1 1 2 1 2 2 13 12 25 24 37 36 2 2 3 4 3 7-1 36-1 73-1 109 0 1 0 2 0 4-2-1-4-2-5-3-11-11-22-23-34-34-2-2-3-5-3-8 0-36 0-72 0-108 0-1 0-3 1-5z"/>
<glyph unicode="&#119;" d="M35 142l442 0 0-56-442 0z m0 39l0 210 110-41 111 96 111-95 110 41 0-211z"/>
<glyph unicode="&#120;" d="M139 392c1 8 1 16 1 24 2 22 21 39 43 39 48 0 96 0 144 0 25 0 43-16 45-41 1-7 1-15 1-23 21 0 41 0 61 0 30 0 47-17 47-46 0-81 0-161 0-242 0-29-17-46-46-46-120 0-239 0-358 0-29 0-46 17-46 45 0 81 0 162 0 243 0 29 18 46 46 46 20 0 40 0 60 0 0 0 1 1 2 1z m94-192c0-19 0-37 0-54 16 0 31 0 47 0 0 18 0 36 0 55 19 0 37 0 55 0 0 16 0 31 0 47-19 0-37 0-56 0 0 16 0 30 0 45-16 0-31 0-47 0 0-15 0-30 0-46-19 0-37 0-55 0 0-16 0-31 0-47 19 0 36 0 56 0z m-54 192c52 0 103 0 155 0 0 4 0 6 0 9 0 16 0 16-16 16-39 0-78 0-117 0-22 0-24 5-22-25z"/>
<glyph unicode="&#121;" d="M256 492c124 2 238-99 237-238 0-137-113-238-240-237-125 1-241 108-234 251 6 121 109 225 237 224z m207-238c-1 113-90 205-203 207-120 2-205-93-210-196-6-118 87-214 201-217 116-3 211 91 212 206z m-243 20c0 12 0 23 0 34 0 4 0 9 1 13 3 9 9 14 17 14 9 1 16-4 19-12 2-4 3-9 5-11 4-2 9-1 14-1 9-1 18 0 27-1 14-1 22-15 16-27-4-7-9-10-17-10-10 0-21 0-32 0-4 0-9 1-10-4-1-5 0-10 1-15 0-2 5-3 8-3 9 0 19 0 28 0 10 1 18-4 23-12 15-20 30-41 45-62 5-8 6-16 1-23-4-7-13-11-20-8-5 2-10 5-13 9-8 11-16 23-24 34-4 5-8 10-11 15-4 8-10 10-19 9-12 0-24 0-36 0-15 0-22 7-23 23 0 13 0 26 0 38 0 0 0 0 0 0z m-18 24c2-11 2-21 1-31-1-4-5-7-7-10-20-20-24-47-12-72 19-39 73-46 102-13 2 2 4 5 7 8 8-7 12-15 17-22 3-3 0-6-3-9-11-12-25-21-41-25-47-13-92 9-111 50-21 45-2 101 42 123 1 0 2 0 5 1z m38 107c15 0 28-13 28-28 0-16-13-29-29-28-16 0-27 11-27 27 0 17 11 29 28 29z"/>
<glyph unicode="&#122;" d="M201 370c17 9 37 14 58 14 24 0 46-6 65-17l65 65c-36 27-81 43-130 43-46 0-89-15-124-39z m241 5l-66-66c7-16 12-34 12-53 0-18-4-35-11-50l67-67c21 34 34 74 34 117 0 44-13 85-36 119z m-116-228c-19-12-42-19-67-19-18 0-36 4-52 11l-67-67c35-22 75-35 119-35 50 0 96 17 132 45z m-177 44c-12 19-18 41-18 65 0 21 5 42 15 59l-66 66c-25-35-39-78-39-125 0-49 16-94 43-130z"/>
<glyph unicode="&#65;" d="M256 489c-129 0-233-104-233-233 0-129 104-233 233-233 129 0 233 104 233 233 0 129-104 233-233 233z m176-121c0-1 0-2-1-2-4-4-1-6 2-9 3-4 3-8 2-12-7 0-7 0-7-7 0-3 0-6 0-9 0-2-1-4-1-6-11 9-12 21-14 33 2 0 3 0 5 0 1 1 2 2 3 2-1 1-1 2-2 3-2 1-3 2-5 2 0 1 0 1 0 2 2 0 5 1 7 1 2 1 4 2 4 4 1 1-1 3-2 4-4 2-4 6-5 11 0 0 0 1 0 2 5-6 9-13 14-19z m-39-269c1 3 2 5 2 9 1 4 5 9 9 13 2 3 1 5-2 6-2 0-4 1-6 0-8-1-16-3-23-5-6-2-10 0-13 5-2 3-4 5-8 5-11-2-20 0-30 5-1 0-4 1-5 1-9-1-18-3-27-4-1 0-3 0-4 0-7 4-13 1-17-4-4-3-8-4-13-3-1 0-3 0-5 1-7 1-10 6-8 13 2 5 1 7-4 9-2 1-4 1-6 2-3 0-6 1-9 1 1 3 2 7 2 10 1 2 2 6-2 7-2 0-6-1-8-3-3-4-6-4-10-2-8 2-12 8-12 16 1 13 11 22 25 17 2-1 4 0 6 0 2 0 4 1 6 1 8 0 13-4 16-10 1-2 4-3 6-5 0 3 0 6 0 8 0 0-1 0-1 1-2 4-2 9 1 13 3 4 7 7 11 10 3 2 4 5 5 9 1 5 3 11 6 16 2 3 5 6 7 10 3 2 5 6 9 4 1-1 2 0 2 0 3 2 6 4 9 6 1 1 2 3 3 4-2 0-3 1-4 1-2 1-5 1-6 3-2 4-4 3-7 1-2-1-4-2-5-3-1 1-1 1-1 2 2 4 7 7 12 9 3 1 5 1 8 2 3 2 5 4 3 8-6 10-13 18-25 20-2 0-4 1-6 2-4 3-8 5-12 8-3 1-5-1-5-4 1-5 2-10 2-15 1-1 0-2 0-3 0-3-1-6-2-10-1-2-1-4-2-7-5 3-7 7-8 12-1 2-2 4-4 5-2 1-5 1-8 2-2 2-5 4-5 6 0 4 0 9 2 12 6 7 12 12 18 18 1 1 1 4 2 6-2 0-3 1-5 0-5-1-8 1-9 7 0 1-1 3-2 5 0-2-1-4-2-5-2-2-3-3-5-4-1 1-2 3-2 4-1 1 0 2-1 4 0 4-1 7-5 9-1 1-2 2-3 3-3 5-6 5-11 0 3-4 7-8 10-12 0-2 0-4 0-6-2 1-3 1-4 2-6 4-11 8-16 12-6 6-12 11-12 20 0 8-4 10-12 8-2-1-3-1-5-1-3 1-6-1-7-4-1-1-3-3-4-3-10 0-10 0-14-10-1-3-2-4-5-3-1 1-3 1-4 1 0 0 0-1 0-1 4-2 8-4 12-6 11-3 13-6 13-20 0-2-1-5-1-7-3-12-8-24-5-37 1-1 0-2-1-3-7-9-12-19-14-31 0-7-2-15-1-22 2-11 6-22 10-33 1-3 3-5 5-8-1 7-2 13-4 19 0 1 1 3 2 4 1-1 2-2 3-3 0-1 0-3 1-4 2-7 5-13 7-20 2-4 3-8 3-12 0-4 2-7 5-9 3-2 6-3 8-5 6-7 13-11 22-13 5-2 11-4 16-7 7-3 13-6 16-13 2-7 13-13 20-12 4 0 7 0 10 0 0-4 0-7 0-10 1-5-1-8-6-9-1-1-3-2-4-4-5-7-3-13 4-17 8-5 16-11 22-19 1-1 2-3 3-3 6-1 5-5 4-8 0-2-1-3-1-4-9-2-18-2-27-2-115 0-208 93-208 208 0 86 53 161 128 192 1-1 1-2 1-3 2-6-2-8-6-10-4-1-6-3-5-7 0-4-1-8-6-9-2-1-4-3-5-4-2-2-4-5-3-5 1-3 4-6 6-7 5-1 5-3 3-6-1-1-1-2-2-5 3 2 5 2 6 3 6 5 11 10 17 15 0 1 1 2 0 2 0 7 4 7 9 8 2 0 6 2 6 3 0 6 4 6 8 7 3 1 6 2 7 4 1 4 4 4 7 5 4 0 8 1 12 3 5 2 8 1 12-3 0-1 1-1 2-2 6-2 13-3 19 0 7 3 13 3 20 1 4-1 7 0 9 3 2 2 5 2 7 0 5-4 11-7 16-11 4-3 7-7 11-10 0-1 0-1-1-2 2 1 4 2 6 2 2 0 4 0 5-1 1 0 1-2 1-3 0-1-2-2-3-2-4-1-8-3-12-4 3-7 8-9 14-12 6-3 12-6 15-12 2-5 6-7 10-8 2-1 4-1 5 0 2 2 3 4 5 7-5 4-11 9-16 13 0 2-1 4 0 6 0 1 3 3 3 2 6-4 15-4 16-14 0-1 2-3 3-5 1-3 3-6 4-10 1-5 2-10 7-14 3-3 6-8 6-14 0-9 0-9 8-11 5-1 8-5 6-8-5-6-5-10 0-14 1-1 1-2 1-3 3-2 5-5 8-5 3 0 5 3 6 6 0 2 1 4 2 6 0 0 1-1 1-1 0-2 0-5-1-7-2-3-3-7-1-11 2-7 6-14 5-22-1-11 0-23 4-34 3-8 5-16 12-22 5-5 9-4 13 2 1 1 2 4 4 5-7-52-33-98-70-131z m-70 227c-10 2-9 9-8 15 0 3 0 6 0 9 0 3 1 6 4 9 3 2 3 7 0 10-6 6-13 12-22 14-2 1-5 2-7 4-8 5-17 4-23-3-2-2-4-3-7 0-1 1-2 1-3 1-5 0-7-2-9-9-2-8-1-10 7-14 2 4 4 8 5 12 4-5 8-9 11-12 6-5 12-8 17-13 2-1 4-5 4-7 0-8 5-12 9-16 7-8 14-4 22 0z m-48 10c-2 2-4 3-6 6-5 8-14 10-22 13-1 0-3-1-4-2-1-1 0-3 1-4 3-5 7-7 12-8 6-1 8-4 7-9 0-3-3-6-4-9 4-1 9-3 14-4 1-1 4-1 4 0 2 3 5 7 5 10-1 2-4 5-7 7z m110 24c-6 2-11 6-17 8 0 1-2 1-3 1 3-7 5-14 8-20 1-2 4-4 7-5 0 0 0 1 1 1-2 3-4 5-6 8 0 0 1 0 1 1 4-2 9-4 13-6 3 9 2 9-4 12z m-48 6c-3 1-9-5-9-8 0-4 3-9 6-9 3 0 9 9 8 13 0 1-3 4-5 4z m-94-195c8-1 15-5 21-9 3-2 7-1 9 2 0 0 0 1 0 1-10 3-20 5-30 8 0-2 0-2 0-2z m80 100c-5 5-10 9-15 14-2-10 6-16 15-14z m-46-109c3-5 9-6 15-3-6 6-8 6-15 3z"/>
<glyph unicode="&#66;" d="M422 36l-387 387 55 55 387-387z m0 442l55-55-387-387-55 55z"/>
<glyph unicode="&#67;" d="M398 364c-4 0-9-1-14-1-1 7-3 14-4 22l-348 0c0 0-63-163 70-303l205 0c0 0 39 29 64 93 9-3 18-4 27-4 54 0 97 43 97 96 0 54-43 97-97 97z m0-156c-5 0-10 1-15 2 7 32 11 71 7 116 3 0 5 0 8 0 33 0 60-26 60-59 0-32-27-59-60-59z"/>
<glyph unicode="&#68;" d="M490 232c0 63-47 115-108 122l0 50-359 0 0-330 359 0 0 36c61 7 108 59 108 122z m-108-69l0 138c31-7 55-35 55-69 0-34-24-62-55-69z"/>
<glyph unicode="&#69;" d="M256 488l-161-241 0-84 77-80 69 0 0-61 30 0 0 61 63 0 83 81 0 83z m130-311l-64-64-137 0-59 62 0 63 130 196 130-196z"/>
<glyph unicode="&#70;" d="M259 489l-155-233 0-78 72-75 67 0 0-81 32 0 0 81 60 0 78 76 0 77z"/>
<glyph unicode="&#71;" d="M215 288c10-12 20-23 29-33 9-10 18-9 27 0 9 11 18 21 28 33 9-10 17-19 25-29 13-15 20-15 34 0 5 6 10 12 16 19 18-30 34-59 51-88 20-35 41-70 61-106 3-5 5-10 6-16 1-9-5-16-15-18-3-1-6-1-10-1-140 0-279 0-419 0-4 0-8 0-11 1-11 3-16 12-13 23 1 3 2 6 4 9 37 63 73 127 110 190 1 1 1 2 3 5 6-7 12-14 18-21 10-11 19-11 29 1 9 10 18 20 27 31z m143 18c-6-7-11-13-17-20-10 11-19 22-28 32-10 11-18 11-28 0-9-10-18-21-28-32-10 11-19 21-28 32-9 11-18 11-28 0-9-11-18-21-28-32-5 5-10 10-14 16-1 2 0 6 1 8 26 46 53 93 80 139 9 16 26 17 35 1 28-48 55-96 83-144z"/>
<glyph unicode="&#72;" d="M185 204c47 35 90 66 135 100 0-25 0-47 0-74 55 41 107 79 161 119 0-71 0-139 0-208-150 0-300 0-454 0 54 40 104 77 158 117 0-18 0-34 0-54z"/>
<glyph unicode="&#73;" d="M433 198c-126 0-227 102-227 227 0 21 2 40 7 59-97-26-169-115-169-220 0-126 102-228 228-228 105 0 194 72 220 169-19-4-39-7-59-7z"/>
<glyph unicode="&#74;" d="M482 308l-48 0c-9 4-15 12-17 25-1 4-1 9 1 12 3 3 5 6 7 9l26 26c4 4 4 10 0 14l-60 60c-4 4-10 4-14 0l-35-35c-9-3-17-2-26 5-1 0-1 0-1 0-2 3-6 5-6 8 0 1-1 2-1 4l0 46c0 5-4 10-10 10l-10 0c-22 0-43 0-65 0l-10 0c-5 0-10-5-10-10l0-46c-3-10-10-16-23-19-4 0-8 0-11 2-2 1-4 2-6 4l-31 31c-4 4-10 4-14 0l-60-60c-4-4-4-10 0-14l35-35c3-9 3-18-5-28-3-3-6-7-10-8-2 0-4 0-5-1l-43 0c-5 0-10-4-10-10l0-84c0-6 5-10 10-10l50 0c6-3 11-9 12-19 0-2 3-4 3-6 0-4 0-8-1-11l-36-36c-4-4-4-10 0-14l60-60c4-4 10-4 14 0l29 29c14 11 16 10 36 1 3-2 5-5 6-8 0-1 0-2 0-4l0-46c0-5 5-10 10-10l85 0c6 0 10 5 10 10l0 46c3 10 11 16 24 19 3 0 8 0 11-2 2-1 4-2 6-4l31-31c4-4 10-4 14 0l60 60c4 4 4 10 0 14l-35 35c-3 8-2 17 4 28 3 5 6 7 12 8 1 0 2 0 3 1l44 0c5 0 10 4 10 10l0 9c0 22 0 43 0 64l0 11c0 6-5 10-10 10z m-227-131c-43 1-78 36-78 79 1 44 36 79 79 79 44-1 79-36 78-79 0-44-35-79-79-79z"/>
<glyph unicode="&#75;" d="M203 284c9-2 17-3 24-3 18 0 35 5 50 15 16 11 24 24 24 42 0 11-4 22-12 30-8 8-18 12-30 12-13 0-22-4-29-12-7-8-11-18-11-31l-113 0c0 21 4 40 13 56 8 17 20 31 34 43 15 11 32 20 50 26 19 6 38 9 59 9 18 0 36-3 53-9 17-6 33-15 46-26 15-13 27-28 36-45 9-18 13-36 13-54 0-31-9-56-28-77-19-21-44-36-75-46l0-40-104 0z m101-151c13-13 20-29 20-47 0-19-7-34-20-47-12-13-28-20-47-20-18 0-34 7-47 20-13 13-19 28-19 47 0 18 6 34 19 47 13 13 29 19 47 19 19 0 35-6 47-19z"/>
<glyph unicode="&#76;" d="M372 427l-22-28c50-31 83-87 83-150 0-98-79-177-177-177-98 0-177 79-177 177 0 60 30 113 76 145l-21 28c-55-38-91-101-91-173 0-117 96-213 213-213 117 0 213 96 213 213 0 74-39 140-97 178z m-135 60l35 0 0-142-35 0z"/>
<glyph unicode="&#77;" d="M65 477l407-408-25-25-408 407z m382 0l26-26-408-407-26 25z"/>
<glyph unicode="&#78;" d="M327 377c8 0 14 6 14 14l0 45c0 7-6 13-14 13-7 0-13-6-13-13l0-45c0-8 6-14 13-14z m154-78l-45 0c-7 0-13-6-13-14 0-7 6-13 13-13l45 0c8 0 14 6 14 13 0 8-6 14-14 14z m-242 51c3-3 6-4 10-4 3 0 7 1 9 4 6 5 6 14 0 19l-31 32c-6 5-14 5-19 0-6-6-6-14 0-19z m174-132c-5 5-13 5-19 0-5-5-5-14 0-19l32-32c3-2 6-4 10-4 3 0 6 2 9 4 5 5 5 14 0 19z m-9 128c3 0 7 1 9 4l32 32c5 5 5 13 0 19-5 5-14 5-19 0l-32-32c-5-5-5-14 0-19 3-3 6-4 10-4z m-77 11c-35 0-65-26-70-59 15-11 26-27 31-45l14 0c25 0 47-12 62-30 21 13 35 36 35 62 0 40-32 72-72 72z m-33-116l-14 0c-9 35-41 60-79 60-37 0-69-25-78-60l-25 0c-45 0-81-36-81-80 0-44 36-80 81-80l196 0c44 0 80 36 80 80 0 44-36 80-80 80z"/>
<glyph unicode="&#79;" d="M393 325l-19 0c-13 47-56 82-108 82-51 0-94-35-107-82l-34 0c-61 0-110-49-110-110 0-61 49-110 110-110l268 0c60 0 109 49 109 110 0 61-49 110-109 110z"/>
<glyph unicode="&#80;" d="M258 340c-46 0-84-38-84-84 0-46 38-84 84-84 47 0 84 38 84 84 0 46-37 84-84 84z m0 41c10 0 19 8 19 18l0 61c0 10-9 18-19 18-10 0-18-8-18-18l0-61c0-10 8-18 18-18z m0-250c-10 0-18-8-18-18l0-61c0-10 8-18 18-18 10 0 19 8 19 18l0 61c0 10-9 18-19 18z m209 143l-61 0c-10 0-18-8-18-18 0-10 8-18 18-18l61 0c10 0 18 8 18 18 0 10-8 18-18 18z m-338-18c0 10-8 18-18 18l-61 0c-10 0-18-8-18-18 0-10 8-18 18-18l61 0c10 0 18 8 18 18z m10 87c4-3 9-5 13-5 5 0 9 2 13 5 7 8 7 19 0 26l-43 43c-7 7-19 7-26 0-7-7-7-19 0-26z m236-178c-7 7-19 7-26 0-7-7-7-19 0-26l43-43c4-3 8-5 13-5 4 0 9 2 13 5 7 7 7 19 0 26z m-230-5l-43-43c-7-7-7-19 0-26 3-3 8-5 13-5 4 0 9 2 12 5l43 43c7 7 7 19 0 26-7 7-18 7-25 0z m217 178c5 0 9 2 13 5l43 43c7 7 7 19 0 26-7 7-19 7-26 0l-43-43c-7-7-7-18 0-26 4-3 8-5 13-5z"/>
<glyph unicode="&#81;" d="M420 350l0 26-220 3-57 39-122 0 0-324 45 256z m71-24l-403 0-41-232 403 0z"/>
<glyph unicode="&#82;" d="M111 398l290 0 0-376-290 0z m184 64l0 28-78 0 0-28-129 0 0-39 336 0 0 39z"/>
<glyph unicode="&#83;" d="M479 443l-24-24c-10-10-27-10-37 0-10 10-10 27 0 37l24 24c-30 15-67 10-92-15-24-25-29-61-16-91l-197-198c-30 14-66 9-91-16-25-24-30-61-15-91l24 24c9 9 24 10 34 2 1-1 3-3 4-5 1 0 2-1 3-2 6-10 5-23-4-32l-24-24c29-15 66-10 91 15 23 23 29 57 19 85l201 201c28-11 62-4 85 19 24 24 30 61 15 91z"/>
<glyph unicode="&#84;" d="M20 359l476 0 0-313-476 0z m0 80l0-49 476 0 0 49z m32-34c-5 0-10 4-10 9 0 6 5 10 10 10 5 0 9-4 9-10 0-5-4-9-9-9z m56 0c-5 0-9 4-9 9 0 6 4 10 9 10 6 0 10-4 10-10 0-5-4-9-10-9z m57 0c-5 0-10 4-10 9 0 6 5 10 10 10 5 0 10-4 10-10 0-5-5-9-10-9z"/>
<glyph unicode="&#85;" d="M126 480l0-439 260 0 0 439z m128-424c-11 0-20 9-20 20 0 11 9 20 20 20 11 0 20-9 20-20 0-11-9-20-20-20z m104 64l-203 0 0 321 203 0z"/>
<glyph unicode="&#86;" d="M131 244c0-18 14-33 32-33 18 0 33 15 33 33 0 18-15 32-33 32-18 0-32-14-32-32z m218 32c-18 0-33-14-33-32 0-18 15-33 33-33 18 0 32 15 32 33 0 18-14 32-32 32z m-318 128l0-296 450 0 0 296z m318-215c-30 0-55 25-55 55 0 12 4 23 11 32l-98 0c7-9 11-20 11-32 0-30-25-55-55-55-30 0-54 25-54 55 0 30 24 54 54 54l186 0c30 0 54-24 54-54 0-30-24-55-54-55z"/>
<glyph unicode="&#87;" d="M468 304c0-101-82-183-183-183-35 0-68 10-96 28l-112-112-51 52 110 110c-21 30-33 66-33 105 0 101 82 182 182 182 101 0 183-81 183-182z m-73 0c0 60-49 109-110 109-60 0-109-49-109-109 0-61 49-110 109-110 61 0 110 49 110 110z"/>
<glyph unicode="&#88;" d="M437 237l0-159-371 0 0 159-49 0 0-208 469 0 0 208z m-185-92l139 140-69 0 0 188-141 0 0-188-69 0z"/>
<glyph unicode="&#89;" d="M440 242l0-156-363 0 0 156-48 0 0-204 459 0 0 204z m-251-90l139 0 0 185 67 0-137 137-137-137 68 0z"/>
<glyph unicode="&#90;" d="M176 276l103-102 143 142 54-54 0 211-211 0 54-54z m250-188l-335 0 0 335 131 0-50 50-131 0 0-435 435 0 0 132-50 50z"/>
<glyph unicode="&#48;" d="M400 465l28 0 0-422-28 0z m-290-2l277 0 0-277z"/>
<glyph unicode="&#49;" d="M456 452c-38 21-52 21-93 22-11 0-22-2-31-7-15-9-27-9-43-1-8 4-20 5-29 3-3-1-4-15-5-23-3-38 12-43 42-24 19 12 40 2 46-19 2-7 4-14 5-21 2-18 4-20 22-20 4 0 8 0 12 0 22 0 24 2 24 24 1 27 2 42 29 42 18 0 18 0 38-8 6-2 17-2 20-3-11 17-23 28-37 35z m-324 18l0-29c0-12-10-22-22-22-12 0-22 10-22 22l0 29c-26-9-45-34-45-64 0-28 17-52 42-62l0-291c0-14 11-26 25-26 14 0 26 12 26 26l0 291c24 10 42 34 42 62 0 30-19 55-46 64z m271-135c0 8-5 15-10 15l-31 0c-6 0-10-7-10-15l0-12c0 0 0-1 0-1l0-269c0-1 0-1 0-1l0-9c0-9 4-16 10-16l14 0c0 0 1 0 1 0 1 0 1 0 1 0l15 0c5 0 10 7 10 16l0 9c0 0 0 0 0 1l0 269c0 0 0 0 0 1z"/>
<glyph unicode="&#50;" d="M315 250c-2-2-7 0-10 4l-23 22c-4 4-6 9-4 10l62 62c2 2 6 0 10-4l23-22c3-4 5-9 3-11z m104 215c-7-13-12-22-18-31-20-33-14-48 20-67 14-8 29-2 41 15 7 9 12 20 19 29 2 3 5 7 9 10 6-7 7-10 7-14 2-26 0-51-12-73-9-19-25-30-46-32-4 0-7 0-10 0-39 9-69-7-95-34-19-20-18-15-20-14-10 8-17 18-24 28-2 3 3 11 6 15 6 7 13 14 19 20 15 17 21 37 22 60 1 44 24 73 65 87 4 2 8 2 17 1z m-162 4c-6-4-12-8-18-12-17-10-35-19-50-31-22-19-22-39-4-61 15-18 15-21-4-36-3-3-6-6-9-8-14-13-17-13-31 0-6 6-12 10-18 14-20 13-44 6-51-16-11-36-27-42-50-9-5 7-14 19-12 22 6 8 16 15 26 17 17 5 28 13 34 30 3 10 11 20 20 27 34 27 68 56 112 66 18 3 54-1 55-3z m-139-419c-4-4-10-4-14 0l-22 23c-4 4-4 10 0 13l128 129c4 3 10 3 14-1l22-22c4-4 4-10 0-14z m60 236c-6 7-7 16-3 20l27 23c4 4 13 2 19-5l212-239c6-7 7-16 3-20l-27-24c-4-4-13-1-19 6z"/>
<glyph unicode="&#51;" d="M258 34c-37 0-57 34-58 36l-2 2 0 80 120 0 0-82-2-2c0-1-21-34-58-34z m-42 43c4-6 19-26 42-26 23 0 38 18 43 24l0 60-85 0z m30 135c0 0-1 0-1 0-5 1-8 5-7 10 0 0 1 12-6 20-5 5-12 7-22 7-4 0-8 4-8 9 0 4 4 8 8 8 15 0 27-4 34-13 13-14 11-33 10-33 0-5-4-8-8-8z m24 0c-4 0-8 3-8 8 0 0-2 19 10 33 8 9 19 13 34 13 4 0 8-4 8-8 0-5-4-9-8-9-10 0-17-2-21-7-7-8-6-20-6-20 0-5-3-9-8-10 0 0 0 0-1 0z m-34-43c-5 0-11 1-16 1-15 0-27 5-30 25l-1 4c-2 10-3 19-6 27-4 15-10 30-16 46-4 7-7 15-11 22-5 11-10 22-14 33-9 26-9 53 1 82 9 25 24 44 45 59 31 20 64 26 97 18 33-7 58-24 76-51 20-30 25-64 15-101-4-18-12-34-20-50-2-3-3-5-4-8-13-26-21-52-25-77-2-21-12-29-33-29-4 0-9 0-13 0l-22 0c0 0 0 0 0 0-4 0-8 0-12 0-4-1-8-1-11-1z m21 300c-19 0-39-7-57-19-17-12-30-28-37-48-8-24-9-47-1-67 4-11 9-21 14-31 3-8 7-16 10-24 7-16 13-32 18-47 3-10 4-20 6-30l1-5c1-6 1-7 10-7 9 0 17 0 26 0 4 0 8 0 11 0l23 0c4 0 9 0 13 0 10 0 11 0 12 11 4 28 12 55 27 84 1 2 2 5 4 8 7 15 15 29 19 45 8 32 4 59-13 84-15 22-35 36-62 43-8 2-16 3-24 3z"/>
<glyph unicode="&#52;" d="M200 130l112 0 0-77c0 0-20-33-56-33-36 0-56 34-56 34l0 76z m57 40c-14 0-28 0-42 0-15 1-20 5-22 18-2 12-4 24-8 36-5 17-11 34-18 51-9 20-20 40-27 60-10 27-8 55 1 82 9 24 24 44 45 58 29 20 62 27 97 19 32-8 58-24 76-51 20-32 24-66 15-102-5-21-16-41-26-61-14-27-24-57-28-88-2-17-7-22-25-22-12 0-25 0-38 0z"/>
<glyph unicode="&#53;" d="M357 455c-16 19-37 32-62 40-6 2-13 5-19 5-17 0-34 3-51-3-20-6-38-14-54-27-38-31-54-71-51-120 2-17 7-34 16-49 9-14 17-27 27-39 18-21 27-45 25-73 0-11 0-22 0-32 0-11 5-16 16-16 17 0 35 0 52 0 17 0 35 0 52 0 11 0 16 5 16 16 0 16-1 33 1 49 0 10 3 20 7 29 7 14 17 26 26 39 14 19 26 38 31 61 9 46-2 85-32 120z m7-115c-3-15-10-29-19-41-9-12-17-24-26-36-15-19-20-41-20-64-1-8-1-16-2-23 0-7-4-10-11-10-8 0-52 0-60 0-7 0-11 3-11 10-2 14-3 28-3 42-2 16-8 30-17 43-10 14-21 28-31 43-16 22-21 47-18 73 4 37 23 65 55 83 25 15 53 19 81 12 31-7 54-25 70-53 15-25 17-51 12-79z m-108-212c17 0 33 0 50 0 10 0 16-6 16-14-1-8-7-13-16-13-33 0-67 0-101 0-7 0-12 4-14 10-2 5 0 12 6 15 2 1 6 2 9 2 17 0 33 0 50 0z m0-66c-14 0-28 0-42 0-4 1-8 1-11 3-5 3-7 7-6 13 1 5 5 9 10 10 2 1 4 1 7 1 28 0 56 0 84 0 5 0 10-2 13-5 7-7 4-18-6-21-2 0-5-1-8-1-13 0-27 0-41 0z m0-39c-8 0-16 0-23 0-10 1-20 14-17 23 1 4 3 3 6 3 5-2 10-3 15-4 13 0 26 0 40 0 4 1 8 2 13 3 4 2 6 1 6-4 1-12-7-21-19-21-7 0-14 0-21 0 0 0 0 0 0 0z"/>
<glyph unicode="&#54;" d="M358 449c-17 19-38 32-62 40-7 2-13 5-20 5-17 0-34 2-51-3-19-6-38-14-54-27-37-31-54-71-50-120 1-17 6-34 16-50 8-13 17-26 27-38 17-22 26-45 25-73-1-11 0-22 0-32 0-11 5-16 15-16 18 0 35 0 52 0 18 0 35 0 53 0 10 0 15 5 15 16 0 16 0 33 1 49 1 10 3 20 7 29 8 14 18 26 27 39 13 19 26 38 31 61 9 45-2 85-32 120z m-102-327c17 0 34 0 50 0 10 0 16-6 16-14 0-8-6-13-15-13-34 0-68 0-101 0-8 0-13 3-15 10-1 5 1 12 6 15 3 1 6 2 9 2 17 0 34 0 50 0z m0-66c-14 0-28 0-42 0-4 1-8 1-11 3-4 3-6 7-5 13 1 5 4 9 9 10 2 1 5 1 7 1 28 0 56 0 85 0 4 0 9-2 13-5 7-7 3-18-6-21-3 0-5-1-8-1-14 0-28 0-42 0z m0-39c-7 0-15 0-23 0-10 1-20 14-17 23 1 4 3 3 6 3 5-2 10-3 15-4 14 0 27 0 40 0 4 1 9 2 13 3 5 2 7 1 7-4 0-12-8-21-20-21-7 0-14 0-21 0 0 0 0 0 0 0z"/>
<glyph unicode="&#55;" d="M179 57l-151 189 79 63 76-96 226 254 75-67z"/>
<glyph unicode="&#56;" d="M259 11c-133 0-242 108-242 241 0 133 109 241 242 241 133 0 241-108 241-241 0-133-108-241-241-241z m0 440c-110 0-199-89-199-199 0-109 89-198 199-198 109 0 198 89 198 198 0 110-89 199-198 199z m-90-324l63 139 114 95-63-132z"/>
<glyph unicode="&#57;" d="M334 447c-35 0-59-13-74-25-29 24-64 25-69 25l-179 0 0-382 194 1c26 0 37-7 39-9l11-16 17 14c10 8 28 10 38 10 0 0 0 0 0 0l189 0 0 382z m-128-341l-153 0 0 301 138 0c1 0 30 0 49-21l0-284c-9 3-20 4-34 4z m254-1l-149 0c-5 0-17 0-31-3l0 284c7 7 23 21 54 21l126 0z"/>
<glyph unicode="&#33;" d="M26 366l131 0 0-315-131 0z m165 106l132 0 0-421-132 0z m165-210l131 0 0-211-131 0z"/>
<glyph unicode="&#34;" d="M359 78l132 0 0-27-132 0z m0 44l132 0 0-23-132 0z m0 44l132 0 0-23-132 0z m0 88l132 0 0-23-132 0z m0-44l132 0 0-23-132 0z m-165 0l132 0 0-23-132 0z m0-44l132 0 0-23-132 0z m0 308l132 0 0-23-132 0z m0-220l132 0 0-23-132 0z m0-132l132 0 0-23-132 0z m0 176l132 0 0-23-132 0z m0 132l132 0 0-23-132 0z m0-352l132 0 0-27-132 0z m0 264l132 0 0-23-132 0z m0 44l132 0 0-23-132 0z m-166-176l132 0 0-23-132 0z m0-88l132 0 0-23-132 0z m0 44l132 0 0-23-132 0z m0 216l132 0 0-19-132 0z m0-40l132 0 0-23-132 0z m0-88l132 0 0-23-132 0z m0-176l132 0 0-27-132 0z m0 220l132 0 0-23-132 0z"/>
<glyph unicode="&#35;" d="M174 387l0 37-53 0 0-37-80 0 0-27 80 0 0-37 53 0 0 37 297 0 0 27z m231-94l-53 0 0-38-311 0 0-26 311 0 0-38 53 0 0 38 66 0 0 26-66 0z m-133-136l-53 0 0-33-178 0 0-27 178 0 0-33 53 0 0 33 199 0 0 27-199 0z"/>
<glyph unicode="&#36;" d="M379 478l-311 0 0-452 388 0 0 376z m28-353l-284 0 0 17 284 0z m0 68l-284 0 0 17 284 0z m0 68l-284 0 0 17 284 0z m0 67l-284 0 0 17 284 0z"/>
<glyph unicode="&#37;" d="M157 484l31 0 0-22-31 0z m82 0l31 0 0-22-31 0z m83 0l30 0 0-22-30 0z m30-22l0-23-30 0 0 23-52 0 0-23-31 0 0 23-51 0 0-23-31 0 0 23-101 0 0-436 400 0 0 436z m43-330l-277 0 0 16 277 0z m0 65l-277 0 0 17 277 0z m0 66l-277 0 0 17 277 0z m0 66l-277 0 0 17 277 0z"/>
<glyph unicode="&#38;" d="M57 483l0-433 0 0 37-36 35 29 31-29 32 29 31-29 34 29 33-29 31 29 32-29 33 27 35-27 34 36 0 0 0 433z m345-341l-286 0 0 17 286 0z m0 68l-286 0 0 17 286 0z m0 68l-286 0 0 17 286 0z m0 68l-286 0 0 17 286 0z"/>
<glyph unicode="&#39;" d="M452 488l-410 0 0-368 206 0 117-108 0 108 87 0z"/>
<glyph unicode="&#40;" d="M257 17c-132 0-240 107-240 239 0 132 108 239 240 239 132 0 239-107 239-239 0-132-107-239-239-239z m0 450c-116 0-211-95-211-211 0-116 95-211 211-211 116 0 210 95 210 211 0 116-94 211-210 211z m-111-197l221 0 0-28-221 0z"/>
<glyph unicode="&#41;" d="M255 496c-132 0-239-108-239-240 0-132 107-240 239-240 132 0 240 108 240 240 0 132-108 240-240 240z m0-451c-116 0-210 95-210 211 0 116 94 211 210 211 117 0 211-95 211-211 0-116-94-211-211-211z m15 323l-29 0 0-98-97 0 0-28 97 0 0-98 29 0 0 98 97 0 0 28-97 0z"/>
<glyph unicode="&#42;" d="M256 210l-235 163-1 0 0-267 472 0 0 267-1 0z m236 196l-236-166-236 166z"/>
<glyph unicode="&#43;" d="M308 277l3 8 5 2c-2 4-5 7-7 11l-3-3-8 0-1 9 3 3c-3 3-7 5-11 8l-2-5-8-3-4 8 2 5c-4 1-9 2-13 2l0-4-7-6-6 6 0 4c-5 0-10-1-14-2l1-5-3-8-8 3-2 5c-4-3-8-5-11-8l3-3 0-9-9 0-3 3c-3-3-5-7-7-11l4-2 3-8-8-4-4 2c-1-4-2-8-2-13l4 0 5-6-5-6-4 0c0-5 1-10 2-14l4 1 8-3-3-8-4-2c2-4 5-7 8-11l2 3 9 0 0-9-2-3c3-2 6-5 10-7l2 5 8 3 3-8-1-4c4-2 9-3 14-3l0 4 6 6 6-6 0-4c5 0 10 1 14 2l-2 5 4 8 8-3 2-5c3 2 7 5 10 8l-2 2 1 9 8 0 2-2c3 3 6 7 8 11l-3 1-3 8 8 3 3-1c1 5 2 9 2 14l-4 0-6 6 6 6 4 0c0 5-1 9-2 13l-6-2z m-51-53c-18 0-32 14-32 32 0 18 14 32 32 32 18 0 32-14 32-32 0-18-14-32-32-32z m138 125c-15 13-32 25-51 33-74 34-146 27-210-23-39-31-74-67-111-102 9-9 16-16 24-23 25-24 49-50 76-73 81-68 184-70 266-3 36 30 67 65 101 97 0 0 0 1 1 2-32 31-63 62-96 92z m-138-181c-48 0-88 40-88 88 0 48 40 88 88 88 48 0 87-40 87-88 0-48-39-88-87-88z"/>
<glyph unicode="&#44;" d="M256 345c-49 0-89-40-89-89 0-49 40-89 89-89 49 0 89 40 89 89 0 49-40 89-89 89z m68-83l-5 0-6-6 6-6 5 0c-1-5-2-10-3-14l-3 1-8-4 3-8 3-1c-2-4-5-8-8-11l-2 2-9 0 0-9 2-2c-3-3-7-6-11-8l-2 5-8 3-3-8 2-5c-5-1-10-2-15-3l0 5-6 6-6-6 0-5c-5 1-10 2-15 3l2 5-3 8-9-3-1-5c-4 2-8 5-11 7l3 3-1 9-9 0-2-3c-3 4-6 8-8 12l4 1 3 8-8 4-4-2c-1 5-2 10-3 15l5 0 6 6-6 6-5 0c1 5 2 9 3 13l4-1 8 3-3 9-4 1c2 4 4 8 7 12l3-3 9 0 1 9-4 3c4 3 8 6 12 8l1-5 9-3 3 8-2 5c5 1 10 2 15 3l0-4 6-6 7 6 0 4c5-1 9-2 14-3l-2-5 3-8 8 3 2 5c5-2 8-5 12-8l-3-3 0-9 9 0 3 3c3-4 5-7 7-11l-5-3-3-8 8-3 5 2c1-4 2-9 3-14z m-68 27c-18 0-33-15-33-33 0-18 15-33 33-33 18 0 33 15 33 33 0 18-15 33-33 33z m141 61c-15 14-33 26-52 34-76 35-149 28-215-23-39-32-74-69-112-104 9-9 16-16 24-24 26-24 50-51 77-74 83-69 188-71 271-2 37 30 69 65 103 98 1 0 1 1 1 2-32 31-64 63-97 93z m55-95c-28-27-55-56-85-81-69-57-156-55-224 2-23 19-43 41-64 61-6 6-13 12-20 20 31 29 60 60 93 85 54 43 115 49 178 20 15-7 30-17 42-28 28-25 55-51 81-77 0-1 0-2-1-2z"/>
<glyph unicode="&#45;" d="M354 385l0 26-190 0 0-26-132 0 0-297 455 0 0 297z m-95-265c-64 0-117 52-117 116 0 65 53 117 117 117 65 0 117-52 117-117 0-64-52-116-117-116z m79 116c0-43-36-78-79-78-43 0-78 35-78 78 0 44 35 79 78 79 43 0 79-35 79-79z"/>
<glyph unicode="&#46;" d="M257 172l-238 156 234 154 242-154z m-188 156l188-123 188 123-191 121z m188-279l-239 147 0-32 240-147 241 153 0 33z m0 78l-239 147 0-32 240-147 241 153 0 33z"/>
<glyph unicode="&#47;" d="M378 376l0 96-343 0 0-343 96 0 0-97 344 0 0 344z m-247-218l-67 0 0 285 285 0 0-67-218 0z m315-97l-286 0 0 286 286 0z"/>
<glyph unicode="&#58;" d="M19 489l217 0 0-218-217 0z m257 0l217 0 0-218-217 0z m-257-257l217 0 0-218-217 0z m257 0l217 0 0-218-217 0z"/>
<glyph unicode="&#59;" d="M16 497l136 0 0-136-136 0z m173 0l135 0 0-136-135 0z m172 0l135 0 0-136-135 0z m-345-173l136 0 0-135-136 0z m173 0l135 0 0-135-135 0z m172 0l135 0 0-135-135 0z m-345-172l136 0 0-135-136 0z m173 0l135 0 0-135-135 0z m172 0l135 0 0-135-135 0z"/>
<glyph unicode="&#60;" d="M87 419l134 0-75-92-133 0z m148 0l41 0 76-92-192 0z m55 0l135 0 73-92-132 0z m-277-103l130 0 104-258z m143 0l198 0-98-252z m211 0l131 0-232-258z"/>
<glyph unicode="&#61;" d="M453 429c-95 5-196 59-196 59-103-58-195-59-195-59-21-314 195-410 195-410 243 130 196 410 196 410z m-195-338c0 0-150 66-136 284 0 0 64 1 135 41 0 0 71-37 136-41 0 0 33-194-135-284z"/>
<glyph unicode="&#62;" d="M425 338l-85 85-281-281 85-85z m-370-314l74 19-84 84-20-74z m-31 17l-7-26 26 7z m417 309l-86 87 62 62 87-86z"/>
<glyph unicode="&#63;" d="M369 24l-230 229 230 230z"/>
<glyph unicode="&#64;" d="M13 162l243 244 244-244z"/>
<glyph unicode="&#91;" d="M499 374l-240-240-240 240z"/>
<glyph unicode="&#93;" d="M148 485l228-227-228-227z"/>
<glyph unicode="&#94;" d="M254 16c-134 0-242 108-242 242 0 133 108 242 242 242 133 0 242-109 242-242 0-134-109-242-242-242z m0 418c-97 0-176-79-176-176 0-97 79-176 176-176 97 0 175 79 175 176 0 97-78 176-175 176z"/>
<glyph unicode="&#95;" d="M362 201c18 30 29 64 29 102 0 104-84 189-188 189-105 0-189-85-189-189 0-105 84-189 189-189 37 0 73 11 102 30l9 6 134-134 42 42-134 135z m-54 207c28-28 44-65 44-105 0-40-16-77-44-106-28-28-65-43-105-43-40 0-77 15-105 43-29 29-44 66-44 106 0 40 15 77 44 105 28 28 65 44 105 44 40 0 77-16 105-44z"/>
<glyph unicode="&#96;" d="M259 19c-34 0-53 31-54 32l-1 2 0 74 110 0 0-75-1-2c-1-1-20-31-54-31z m-39 39c4-6 18-24 39-24 21 0 35 17 39 22l0 55-78 0z m24 75c0 0-1 0-1 0-6 1-9 6-9 11 0 0 1 11-5 17-3 4-10 6-18 6-5 0-10 5-10 10 0 5 5 10 10 10 14 0 25-4 33-13 11-13 10-30 10-32-1-5-5-9-10-9z m30 0c-5 0-9 4-10 9 0 2-2 19 10 32 8 9 19 13 33 13 5 0 10-5 10-10 0-5-5-10-10-10-9 0-15-2-18-6-6-6-5-17-5-17 0-5-4-10-9-11 0 0-1 0-1 0z m-50 75c-3 0-6 2-6 5l-22 121c-1 3 1 6 4 7 4 0 7-2 7-5l16-84 11 84c0 2 2 5 5 5 0 0 0 0 0 0 3 0 6-2 6-5l11-76 9 76c0 2 3 5 6 5 2 0 5-2 6-5l14-85 13 85c1 3 4 5 7 5 3-1 5-4 5-7l-19-121c0-3-2-5-5-5 0 0 0 0 0 0-3 0-6 2-6 5l-14 82-10-82c-1-3-3-5-6-5 0 0 0 0 0 0-3 0-6 2-6 5l-10 77-10-77c-1-3-3-5-6-5 0 0 0 0 0 0z m105 0c0 0-1 0-2 1-3 1-4 4-3 7 48 110 9 184 2 197-36 8-53 26-62 41-2 3-3 5-4 8-15-32-56-47-66-50-65-100-2-191 1-195 2-2 1-6-1-8-3-2-6-1-8 2-1 1-72 101 0 209 0 1 1 2 3 3 0 0 64 19 64 63 0 3 3 5 6 6 3 0 6-3 6-6 0-2 4-50 66-62 1 0 3-1 3-3 3-3 55-84 1-209-1-3-3-4-6-4z"/>
<glyph unicode="&#123;" d="M445 349l-34-35c10-22 16-47 16-73 0-94-76-171-170-171-95 0-171 77-171 171 0 93 75 169 167 171l0-47 75 66-75 66 0-39c-118-2-213-99-213-217 0-120 97-217 217-217 119 0 217 97 217 217 0 39-11 76-29 108z"/>
<glyph unicode="&#124;" d="M93 258c0 64 37 119 91 146l0-41 74 65-74 65 0-40c-80-29-137-106-137-195 0-101 72-186 168-205l0 47c-70 18-122 82-122 158z m370 0c0 100-72 185-167 204l0-47c70-18 122-82 122-157 0-65-38-121-92-147l0 44-74-67 74-66 0 40c80 29 137 106 137 196z"/>
<glyph unicode="&#125;" d="M256 491c-129 0-234-105-234-233 0-129 105-234 234-234 129 0 234 105 234 234 0 128-105 233-234 233z m0-419c-102 0-186 83-186 186 0 102 84 185 186 185 103 0 186-83 186-185 0-103-83-186-186-186z m22 176l0 155-44 0 0-136-64-64 32-31 76 76z"/>
<glyph unicode="&#126;" d="M389 464l-236-236-28 28 236 236z m0-416l-28-28-236 236 28 28z"/>
<glyph unicode="&#92;" d="M478 120l-247 246 29 29 247-246z m-436 0l-29 29 247 246 29-29z"/>
<glyph unicode="&#57344;" d="M41 395l247-246-29-29-247 246z m436 0l29-29-247-246-29 29z"/>
<glyph unicode="&#57345;" d="M120 41l245 245 29-29-245-245z m0 433l29 29 245-245-29-29z"/>
<glyph unicode="&#57346;" d="M427 325c0 94-77 171-171 171-94 0-171-77-171-171 0-30 9-59 23-84l148-221 135 201c5 6 9 13 13 19l0 1 0 0c14 25 23 54 23 84z m-171-84c-42 0-76 34-76 76 0 42 34 76 76 76 42 0 76-34 76-76 0-42-34-76-76-76z"/>
<glyph unicode="&#57347;" d="M403 243l0 0c14 24 22 53 22 83 0 93-76 169-169 169-93 0-169-76-169-169 0-30 8-59 22-83l147-219 133 198c5 7 9 13 13 20z"/>
<glyph unicode="&#57348;" d="M159 426c-6 0-11 4-12 9-2 7 2 14 9 16l122 31c7 2 13-2 15-9 2-7-2-13-9-15l-122-32c-1 0-2 0-3 0z m73-163c-6 0-11 4-12 9-2 7 2 14 9 16l122 31c7 2 14-2 15-9 2-7-2-13-9-15l-122-32c-1 0-2 0-3 0z m-65 104c-6 0-11 4-12 10-2 7 2 14 9 15l187 48c7 2 14-2 15-9 2-6-2-13-9-15l-187-48c-1 0-2-1-3-1z m0-60c-6 0-11 4-12 10-2 6 2 13 9 15l187 48c7 2 14-2 15-9 2-7-2-13-9-15l-187-48c-1-1-2-1-3-1z m89-295c-44 0-68 41-69 42l-2 3 0 95 141 0 0-97-1-2c-1-2-25-41-69-41z m-51 51c5-8 23-30 51-30 27 0 45 21 50 28l0 71-101 0z m31 107c0 0-1 0-1 0-7 1-12 7-11 14 0 0 1 13-7 22-4 5-12 8-23 8-7 0-12 5-12 12 0 7 5 13 12 13 19 0 33-6 42-17 15-16 13-38 13-41-1-6-6-11-13-11z m39 0c-6 0-12 5-12 11-1 3-3 25 12 41 10 11 24 17 42 17 7 0 13-6 13-13 0-7-6-12-13-12-10 0-18-3-23-8-8-9-6-22-6-22 0-7-5-13-11-14-1 0-1 0-2 0z"/>
</font>
</defs>
</svg>
