<?xml version="1.0" encoding="utf-8"?>
<!-- Generator: Adobe Illustrator 16.0.0, SVG Export Plug-In . SVG Version: 6.00 Build 0)  -->
<!DOCTYPE svg PUBLIC "-//W3C//DTD SVG 1.1//EN" "http://www.w3.org/Graphics/SVG/1.1/DTD/svg11.dtd">
<svg version="1.1" id="Layer_1" xmlns="http://www.w3.org/2000/svg" xmlns:xlink="http://www.w3.org/1999/xlink" x="0px" y="0px"
	 width="300px" height="300px" viewBox="0 0 300 300" enable-background="new 0 0 300 300" xml:space="preserve">
<g>
	<path d="M149.584,9.562C72.149,9.562,9.153,72.561,9.153,149.998s62.996,140.439,140.431,140.439
		c77.438,0,140.439-63.002,140.439-140.439S227.023,9.562,149.584,9.562z M149.584,273.499
		c-68.093,0-123.491-55.403-123.491-123.501c0-68.094,55.397-123.493,123.491-123.493c68.098,0,123.5,55.399,123.5,123.493
		C273.085,218.096,217.682,273.499,149.584,273.499z"/>
	<polygon points="158.054,84.538 141.114,84.538 141.114,141.53 84.127,141.53 84.127,158.467 141.114,158.467 141.114,215.455 
		158.054,215.455 158.054,158.467 215.046,158.467 215.046,141.53 158.054,141.53 	"/>
</g>
</svg>
